<?xml version="1.0" encoding="UTF-8"?>
<svg xmlns="http://www.w3.org/2000/svg" xmlns:xlink="http://www.w3.org/1999/xlink" width="40px" height="40px" viewBox="0 0 40 40" version="1.1">
<defs>
<radialGradient id="radial0" gradientUnits="userSpaceOnUse" cx="0" cy="0" fx="0" fy="0" r="1" gradientTransform="matrix(18.12502,-26.249986,26.249986,18.12502,15,28.75)">
<stop offset="0" style="stop-color:rgb(69.411765%,20.784314%,53.72549%);stop-opacity:1;"/>
<stop offset="0.79309" style="stop-color:rgb(77.647059%,18.431373%,58.039216%);stop-opacity:1;"/>
<stop offset="1" style="stop-color:rgb(54.117647%,22.745098%,78.431373%);stop-opacity:1;"/>
</radialGradient>
<radialGradient id="radial1" gradientUnits="userSpaceOnUse" cx="0" cy="0" fx="0" fy="0" r="1" gradientTransform="matrix(11.874977,-25.624946,25.624946,11.874977,13.75,38.75)">
<stop offset="0" style="stop-color:rgb(87.843137%,90.980392%,71.764706%);stop-opacity:1;"/>
<stop offset="0.444662" style="stop-color:rgb(98.431373%,54.117647%,18.039216%);stop-opacity:1;"/>
<stop offset="0.71474" style="stop-color:rgb(88.627451%,25.882353%,36.078431%);stop-opacity:1;"/>
<stop offset="1" style="stop-color:rgb(88.627451%,25.882353%,36.078431%);stop-opacity:0;"/>
</radialGradient>
<radialGradient id="radial2" gradientUnits="userSpaceOnUse" cx="0" cy="0" fx="0" fy="0" r="1" gradientTransform="matrix(48.125033,-6.875003,1.470492,10.293446,0.625003,3.75)">
<stop offset="0.156701" style="stop-color:rgb(25.098039%,41.568627%,86.27451%);stop-opacity:1;"/>
<stop offset="0.467799" style="stop-color:rgb(41.568627%,27.058824%,74.509804%);stop-opacity:1;"/>
<stop offset="1" style="stop-color:rgb(41.568627%,27.058824%,74.509804%);stop-opacity:0;"/>
</radialGradient>
</defs>
<g id="surface1">
<path style=" stroke:none;fill-rule:nonzero;fill:url(#radial0);" d="M 10 2.5 L 30 2.5 C 34.140625 2.5 37.5 5.859375 37.5 10 L 37.5 30 C 37.5 34.140625 34.140625 37.5 30 37.5 L 10 37.5 C 5.859375 37.5 2.5 34.140625 2.5 30 L 2.5 10 C 2.5 5.859375 5.859375 2.5 10 2.5 Z M 10 2.5 "/>
<path style=" stroke:none;fill-rule:nonzero;fill:url(#radial1);" d="M 10 2.5 L 30 2.5 C 34.140625 2.5 37.5 5.859375 37.5 10 L 37.5 30 C 37.5 34.140625 34.140625 37.5 30 37.5 L 10 37.5 C 5.859375 37.5 2.5 34.140625 2.5 30 L 2.5 10 C 2.5 5.859375 5.859375 2.5 10 2.5 Z M 10 2.5 "/>
<path style=" stroke:none;fill-rule:nonzero;fill:url(#radial2);" d="M 10 2.5 L 30 2.5 C 34.140625 2.5 37.5 5.859375 37.5 10 L 37.5 30 C 37.5 34.140625 34.140625 37.5 30 37.5 L 10 37.5 C 5.859375 37.5 2.5 34.140625 2.5 30 L 2.5 10 C 2.5 5.859375 5.859375 2.5 10 2.5 Z M 10 2.5 "/>
<path style=" stroke:none;fill-rule:nonzero;fill:rgb(100%,100%,100%);fill-opacity:1;" d="M 28.75 13.125 C 28.75 14.160156 27.910156 15 26.875 15 C 25.839844 15 25 14.160156 25 13.125 C 25 12.089844 25.839844 11.25 26.875 11.25 C 27.910156 11.25 28.75 12.089844 28.75 13.125 Z M 28.75 13.125 "/>
<path style=" stroke:none;fill-rule:evenodd;fill:rgb(100%,100%,100%);fill-opacity:1;" d="M 20 26.25 C 23.453125 26.25 26.25 23.453125 26.25 20 C 26.25 16.546875 23.453125 13.75 20 13.75 C 16.546875 13.75 13.75 16.546875 13.75 20 C 13.75 23.453125 16.546875 26.25 20 26.25 Z M 20 23.75 C 22.070312 23.75 23.75 22.070312 23.75 20 C 23.75 17.929688 22.070312 16.25 20 16.25 C 17.929688 16.25 16.25 17.929688 16.25 20 C 16.25 22.070312 17.929688 23.75 20 23.75 Z M 20 23.75 "/>
<path style=" stroke:none;fill-rule:evenodd;fill:rgb(100%,100%,100%);fill-opacity:1;" d="M 7.5 19.5 C 7.5 15.300781 7.5 13.199219 8.316406 11.59375 C 9.035156 10.183594 10.183594 9.035156 11.59375 8.316406 C 13.199219 7.5 15.300781 7.5 19.5 7.5 L 20.5 7.5 C 24.699219 7.5 26.800781 7.5 28.40625 8.316406 C 29.816406 9.035156 30.964844 10.183594 31.683594 11.59375 C 32.5 13.199219 32.5 15.300781 32.5 19.5 L 32.5 20.5 C 32.5 24.699219 32.5 26.800781 31.683594 28.40625 C 30.964844 29.816406 29.816406 30.964844 28.40625 31.683594 C 26.800781 32.5 24.699219 32.5 20.5 32.5 L 19.5 32.5 C 15.300781 32.5 13.199219 32.5 11.59375 31.683594 C 10.183594 30.964844 9.035156 29.816406 8.316406 28.40625 C 7.5 26.800781 7.5 24.699219 7.5 20.5 Z M 19.5 10 L 20.5 10 C 22.640625 10 24.097656 10 25.222656 10.09375 C 26.320312 10.183594 26.878906 10.347656 27.269531 10.546875 C 28.210938 11.023438 28.976562 11.789062 29.453125 12.730469 C 29.652344 13.121094 29.816406 13.679688 29.90625 14.777344 C 29.996094 15.902344 30 17.359375 30 19.5 L 30 20.5 C 30 22.640625 29.996094 24.097656 29.90625 25.222656 C 29.816406 26.320312 29.652344 26.878906 29.453125 27.269531 C 28.976562 28.210938 28.210938 28.976562 27.269531 29.453125 C 26.878906 29.652344 26.320312 29.816406 25.222656 29.90625 C 24.097656 29.996094 22.640625 30 20.5 30 L 19.5 30 C 17.359375 30 15.902344 29.996094 14.777344 29.90625 C 13.679688 29.816406 13.121094 29.652344 12.730469 29.453125 C 11.789062 28.976562 11.023438 28.210938 10.546875 27.269531 C 10.347656 26.878906 10.183594 26.320312 10.09375 25.222656 C 10 24.097656 10 22.640625 10 20.5 L 10 19.5 C 10 17.359375 10 15.902344 10.09375 14.777344 C 10.183594 13.679688 10.347656 13.121094 10.546875 12.730469 C 11.023438 11.789062 11.789062 11.023438 12.730469 10.546875 C 13.121094 10.347656 13.679688 10.183594 14.777344 10.09375 C 15.902344 10 17.359375 10 19.5 10 Z M 19.5 10 "/>
</g>
</svg>
