<?xml version="1.0" encoding="UTF-8"?>
<svg xmlns="http://www.w3.org/2000/svg" xmlns:xlink="http://www.w3.org/1999/xlink" width="40px" height="40px" viewBox="0 0 40 40" version="1.1">
<g id="surface1">
<path style=" stroke:none;fill-rule:nonzero;fill:rgb(0%,46.666667%,70.980394%);fill-opacity:1;" d="M 36.667969 20 C 36.667969 10.796875 29.203125 3.332031 20 3.332031 C 10.796875 3.332031 3.332031 10.796875 3.332031 20 C 3.332031 29.203125 10.796875 36.667969 20 36.667969 C 29.203125 36.667969 36.667969 29.203125 36.667969 20 Z M 36.667969 20 "/>
<path style=" stroke:none;fill-rule:evenodd;fill:rgb(100%,100%,100%);fill-opacity:1;" d="M 15.644531 11.902344 C 15.644531 12.941406 14.855469 13.78125 13.621094 13.78125 C 12.433594 13.78125 11.644531 12.941406 11.667969 11.902344 C 11.644531 10.816406 12.433594 10 13.644531 10 C 14.855469 10 15.621094 10.816406 15.644531 11.902344 Z M 11.765625 27.347656 L 11.765625 15.261719 L 15.523438 15.261719 L 15.523438 27.347656 Z M 11.765625 27.347656 "/>
<path style=" stroke:none;fill-rule:evenodd;fill:rgb(100%,100%,100%);fill-opacity:1;" d="M 18.53125 19.121094 C 18.53125 17.613281 18.484375 16.328125 18.433594 15.265625 L 21.695312 15.265625 L 21.871094 16.921875 L 21.945312 16.921875 C 22.4375 16.15625 23.671875 14.992188 25.675781 14.992188 C 28.144531 14.992188 30 16.625 30 20.183594 L 30 27.351562 L 26.242188 27.351562 L 26.242188 20.652344 C 26.242188 19.09375 25.699219 18.035156 24.339844 18.035156 C 23.304688 18.035156 22.683594 18.75 22.4375 19.441406 C 22.339844 19.6875 22.289062 20.035156 22.289062 20.382812 L 22.289062 27.351562 L 18.535156 27.351562 L 18.535156 19.121094 Z M 18.53125 19.121094 "/>
</g>
</svg>
