<?xml version="1.0" encoding="UTF-8"?>
<svg xmlns="http://www.w3.org/2000/svg" xmlns:xlink="http://www.w3.org/1999/xlink" width="40px" height="40px" viewBox="0 0 40 40" version="1.1">
<g id="surface1">
<path style=" stroke:none;fill-rule:nonzero;fill:rgb(56.862748%,27.450982%,100%);fill-opacity:1;" d="M 40 20 C 40 8.953125 31.046875 0 20 0 C 8.953125 0 0 8.953125 0 20 C 0 31.046875 8.953125 40 20 40 C 31.046875 40 40 31.046875 40 20 Z M 40 20 "/>
<path style=" stroke:none;fill-rule:nonzero;fill:rgb(100%,100%,100%);fill-opacity:1;" d="M 27.066406 20.898438 L 24.101562 23.710938 L 21.132812 23.710938 L 18.535156 26.171875 L 18.535156 23.710938 L 15.195312 23.710938 L 15.195312 13.171875 L 27.066406 13.171875 Z M 14.453125 11.765625 L 10.742188 15.277344 L 10.742188 27.925781 L 15.195312 27.925781 L 15.195312 31.4375 L 18.90625 27.925781 L 21.875 27.925781 L 28.550781 21.601562 L 28.550781 11.765625 Z M 24.84375 15.742188 L 23.359375 15.742188 L 23.359375 19.957031 L 24.84375 19.957031 Z M 19.277344 15.722656 L 20.761719 15.722656 L 20.761719 19.9375 L 19.277344 19.9375 Z M 19.277344 15.722656 "/>
</g>
</svg>
