<?xml version="1.0" encoding="UTF-8"?>
<svg xmlns="http://www.w3.org/2000/svg" xmlns:xlink="http://www.w3.org/1999/xlink" width="40px" height="40px" viewBox="0 0 40 40" version="1.1">
<g id="surface1">
<path style=" stroke:none;fill-rule:nonzero;fill:rgb(0%,0%,0%);fill-opacity:1;" d="M 20 3.398438 C 10.832031 3.398438 3.332031 10.882812 3.332031 20.101562 C 3.332031 28.433594 9.433594 35.351562 17.398438 36.601562 L 17.398438 24.933594 L 13.167969 24.933594 L 13.167969 20.101562 L 17.398438 20.101562 L 17.398438 16.417969 C 17.398438 12.234375 19.882812 9.933594 23.699219 9.933594 C 25.515625 9.933594 27.417969 10.25 27.417969 10.25 L 27.417969 14.367188 L 25.316406 14.367188 C 23.25 14.367188 22.601562 15.648438 22.601562 16.964844 L 22.601562 20.101562 L 27.234375 20.101562 L 26.484375 24.933594 L 22.601562 24.933594 L 22.601562 36.601562 C 26.527344 35.980469 30.105469 33.976562 32.683594 30.949219 C 35.261719 27.925781 36.675781 24.074219 36.667969 20.101562 C 36.667969 10.882812 29.167969 3.398438 20 3.398438 Z M 20 3.398438 "/>
</g>
</svg>
